PathFileType	4	(X/Y/Z)	./resultDataOpenSim/trcMotMarkerGrf/sub09/qtm-03-07.trc
DataRate	CameraRate	NumFrames	NumMarkers	Units	OrigDataRate	OrigDataStartFrame	OrigNumFrames
250.000000	250.000000	8	24	m	250.000000	1	491
Frame#	Time	L.Toe.Tip			R.Toe.Tip			L.Ankle.Lat			R.Ankle.Lat			L.Ankle.Med			R.Ankle.Med			L.Heel			R.Heel			L.Knee.Lat			R.Knee.Lat			L.Knee.Med			R.Knee.Med			L.Thigh.Upper			R.Thigh.Upper			L.ASIS			R.ASIS			V.Sacral			L.Acromium			R.Acromium			C7			L.Elbow			R.Elbow			L.Wrist.Lat			R.Wrist.Lat
		X1	Y1	Z1	X2	Y2	Z2	X3	Y3	Z3	X4	Y4	Z4	X5	Y5	Z5	X6	Y6	Z6	X7	Y7	Z7	X8	Y8	Z8	X9	Y9	Z9	X10	Y10	Z10	X11	Y11	Z11	X12	Y12	Z12	X13	Y13	Z13	X14	Y14	Z14	X15	Y15	Z15	X16	Y16	Z16	X17	Y17	Z17	X18	Y18	Z18	X19	Y19	Z19	X20	Y20	Z20	X21	Y21	Z21	X22	Y22	Z22	X23	Y23	Z23	X24	Y24	Z24

1	0	-1.5497512	0.037456227	-0.047431648	-0.97004845	0.0873141	0.064784966	-1.7007059	0.081118077	-0.076125297	-1.1183648	0.069173483	0.087968244	-1.667431	0.097313437	0.014919979	-1.1085278	0.11010667	-0.0020125777	NaN	NaN	NaN	-1.168973	0.031087724	0.030182422	-1.5521461	0.47407444	-0.13722866	-1.1950157	0.51864861	0.14263252	-1.5372339	0.47176826	-0.012356675	-1.1937235	0.50355546	0.014881579	-1.4438534	0.88053829	-0.17902418	-1.394259	0.87262374	0.18773182	-1.3343328	0.95070706	-0.13370078	-1.3142356	0.95699758	0.10669895	-1.4816106	1.0153157	0.0071334622	-1.2996036	1.4009824	-0.18329807	-1.3122515	1.4177966	0.14347537	-1.3707158	1.4618571	-0.029665081	-1.3739125	1.0263251	-0.23319555	NaN	NaN	NaN	-1.1087031	0.95570665	-0.21480494	-1.4321735	0.85057683	0.27102623
2	0.004	-1.5496798	0.037406297	-0.047396949	-0.9536043	0.091045118	0.065097952	-1.6995281	0.081966953	-0.076053594	-1.1021694	0.069681314	0.087876126	-1.6669471	0.097897486	0.01512791	-1.0931483	0.11079214	-0.00199597	NaN	NaN	NaN	-1.1512843	0.030516422	0.029736313	-1.5495839	0.474018	-0.13660707	-1.1885412	0.51753595	0.14283691	-1.5357295	0.47156895	-0.012049675	-1.1870105	0.50250908	0.014760293	-1.4380592	0.87933866	-0.17883359	-1.3883686	0.87110701	0.18782103	-1.3282835	0.9493503	-0.13364595	-1.308046	0.95554325	0.10684368	-1.4752129	1.013908	0.0075631544	-1.2935524	1.3997355	-0.18289121	-1.3063362	1.4162951	0.14384821	-1.3646387	1.4611533	-0.026695991	-1.3667655	1.0247781	-0.23310146	NaN	NaN	NaN	-1.1011113	0.95658174	-0.21424158	-1.4267113	0.8489909	0.27156943
3	0.008	-1.5496151	0.037350993	-0.047359565	-0.93750005	0.094987294	0.065437826	-1.6986875	0.082797061	-0.07595823	-1.0860564	0.070295873	0.087871983	-1.6664798	0.09848871	0.015294151	-1.0780047	0.11152974	-0.001974368	NaN	NaN	NaN	-1.1340495	0.0299458	0.029665443	-1.5467963	0.47396257	-0.13627391	-1.1820305	0.51639278	0.14302819	-1.5340412	0.4713854	-0.011741822	-1.1803531	0.50141318	0.01464392	-1.432196	0.87815943	-0.17860864	-1.3823407	0.8695573	0.18791828	-1.3222429	0.94796897	-0.13362039	-1.3018025	0.95408731	0.10696925	-1.4687889	1.0124961	0.0079654895	-1.2875002	1.3985053	-0.18248986	-1.3004251	1.4147952	0.14423864	-1.3586922	1.4602734	-0.024587846	-1.3596089	1.0232537	-0.23299403	NaN	NaN	NaN	-1.0934223	0.95739791	-0.21365898	-1.4211473	0.84739338	0.2721049
4	0.012	-1.5495563	0.037292389	-0.047323032	-0.92184271	0.099210654	0.065777961	-1.6981781	0.083639048	-0.075858234	-1.0701288	0.071057881	0.08794876	-1.6660054	0.09909539	0.015402082	-1.0631465	0.11237588	-0.0019282544	NaN	NaN	NaN	-1.1173081	0.029484387	0.029946001	-1.5436886	0.47389483	-0.13627881	-1.1755329	0.51517901	0.14315256	-1.5319048	0.47122674	-0.01148121	-1.1737744	0.50024537	0.014533568	-1.4262596	0.87700075	-0.17834404	-1.3761107	0.86797523	0.1880242	-1.3161915	0.94656238	-0.13362527	-1.2954749	0.95262659	0.10707622	-1.4623582	1.0110917	0.0082448127	-1.281423	1.3972893	-0.18208133	-1.2944934	1.4132967	0.14464941	-1.3528298	1.4591697	-0.023390542	-1.3524307	1.0217525	-0.23284993	NaN	NaN	NaN	-1.0855437	0.958116	-0.21302679	-1.4154394	0.84578183	0.27262587
5	0.016	-1.5494977	0.037237191	-0.047293713	-0.90664047	0.10361467	0.066083491	-1.6977429	0.084533993	-0.075803792	-1.0545156	0.07194548	0.088038037	-1.66548	0.099728321	0.015453353	-1.0485528	0.11336184	-0.0018551096	NaN	NaN	NaN	-1.1009313	0.029228277	0.030359778	-1.5403817	0.47379452	-0.13635621	-1.1691078	0.51388032	0.14318282	-1.5292189	0.47107977	-0.011308247	-1.1672762	0.49900944	0.014432443	-1.4203146	0.87585503	-0.17805964	-1.3696969	0.86637978	0.18814154	-1.3101051	0.94515711	-0.13363852	-1.2890742	0.95116008	0.10717135	-1.4560798	1.0097305	0.0082238754	-1.2753025	1.3960773	-0.18165487	-1.2885215	1.4118014	0.14507594	-1.3469213	1.457903	-0.022650808	-1.3452358	1.0202637	-0.23263195	NaN	NaN	NaN	-1.0775887	0.95872634	-0.21237049	-1.409607	0.84416899	0.27312577
6	0.02	-1.549437	0.037188743	-0.047273868	-0.89193815	0.10803849	0.066345833	-1.6971866	0.08549196	-0.075835828	-1.0392977	0.072922576	0.088094113	-1.6648719	0.10040719	0.015447506	-1.0342423	0.11447602	-0.0017793889	NaN	NaN	NaN	-1.0848783	0.029160268	0.030816838	-1.5370311	0.47365088	-0.13625817	-1.1626696	0.51255532	0.14319264	-1.5260969	0.47091877	-0.011219501	-1.1608401	0.49771871	0.014346856	-1.4144051	0.87472	-0.17777406	-1.3631331	0.86478219	0.18827613	-1.3039532	0.94378663	-0.13363442	-1.2826144	0.94969031	0.10725515	-1.4501713	1.0084585	0.0079179727	-1.2691335	1.3948661	-0.181215	-1.2825015	1.4103108	0.14551228	-1.3409107	1.4565584	-0.022050004	-1.3380377	1.0187881	-0.23234327	NaN	NaN	NaN	-1.0698023	0.95923938	-0.2117644	-1.403673	0.84257038	0.27360158
7	0.024	-1.5493749	0.037145242	-0.047260692	-0.87778127	0.11235643	0.066539137	-1.6965128	0.086503688	-0.075958219	-1.0245249	0.073953244	0.088108991	-1.6641722	0.10115558	0.015375395	-1.0202804	0.11567806	-0.0017272073	NaN	NaN	NaN	-1.0691936	0.029214358	0.031342098	-1.5336349	0.47346966	-0.13602563	-1.1560732	0.51129524	0.1432742	-1.5226936	0.47072921	-0.01119502	-1.1544429	0.49639045	0.014283089	-1.4085213	0.87360117	-0.17749213	-1.3564464	0.86318685	0.18842354	-1.2977042	0.94247657	-0.13359341	-1.27609	0.94822525	0.10732917	-1.4447862	1.0073171	0.0077740659	-1.2629204	1.3936612	-0.18076758	-1.2764372	1.4088275	0.14595377	-1.3348188	1.4552071	-0.021467934	-1.3308572	1.0173433	-0.23205194	-1.4539924	1.1059684	0.24389673	-1.0622548	0.95966825	-0.2112304	-1.3976447	0.84099451	0.27405493
8	0.028	-1.5493108	0.037104086	-0.047250507	-0.86416033	0.11647561	0.066604029	-1.6958539	0.087554904	-0.076133736	-1.0102513	0.074996806	0.088083039	-1.663391	0.10198381	0.015232068	-1.0067343	0.11692475	-0.0017073939	NaN	NaN	NaN	-1.0539624	0.029351445	0.031908181	-1.5301179	0.47326436	-0.13578729	-1.1493021	0.51013273	0.14342144	-1.5191237	0.47050784	-0.011213052	-1.1480618	0.49504411	0.014248092	-1.4026323	0.87250496	-0.17720819	-1.3496719	0.86159731	0.18857295	-1.2913546	0.9412312	-0.13351338	-1.2694892	0.94677495	0.10739936	-1.4400229	1.0063306	0.0081849017	-1.2566663	1.3924675	-0.18031337	-1.2703387	1.4073572	0.14640103	-1.3286626	1.4538886	-0.020829517	-1.3237071	1.0159435	-0.23181169	-1.4483883	1.1045072	0.24411118	-1.0548239	0.96002222	-0.21072526	-1.3915171	0.83944489	0.27448884
